<?xml version="1.0" encoding="UTF-8"?>
<svg xmlns="http://www.w3.org/2000/svg" width="24" height="24" viewBox="0 0 24 24" fill="none">
  <defs>
    <linearGradient id="serviceGrad" x1="0" y1="0" x2="24" y2="24" gradientUnits="userSpaceOnUse">
      <stop offset="0" stop-color="#FF8C00"/>
      <stop offset="1" stop-color="#C06000"/>
    </linearGradient>
  </defs>

  <!-- Sword -->
  <path d="M12 3v14.5M12 3l2 2M12 3l-2 2M10 17l2 4 2-4"
        stroke="url(#serviceGrad)" stroke-width="1.6" stroke-linecap="round" stroke-linejoin="round"/>

  <!-- Laurel branch (left) -->
  <path d="M7 14c-.5-1.5-1-3 0-4.5 1-1.5 2.5-2.5 4.5-3M7.2 14c.5.8 1.3 1.5 2.3 2M7.4 10.8c.8-.8 1.8-1.3 2.9-1.6"
        stroke="url(#serviceGrad)" stroke-width="1.5" stroke-linecap="round" stroke-linejoin="round" opacity="0.9"/>

  <!-- Laurel branch (right) -->
  <path d="M17 14c.5-1.5 1-3 0-4.5-1-1.5-2.5-2.5-4.5-3M16.8 14c-.5.8-1.3 1.5-2.3 2M16.6 10.8c-.8-.8-1.8-1.3-2.9-1.6"
        stroke="url(#serviceGrad)" stroke-width="1.5" stroke-linecap="round" stroke-linejoin="round" opacity="0.9"/>
</svg>
